<svg width="64" height="64" xmlns="http://www.w3.org/2000/svg">

 <g>
  <title>background</title>
  <rect fill="none" id="canvas_background" height="402" width="582" y="-1" x="-1"/>
 </g>
 <g>
  <title>Layer 1</title>
  <path id="svg_3" fill="#4D4D4D" d="m54.4,21.7l-4.4,0l0,-3.6c0,-10 -8.1,-18.1 -18,-18.1c-9.9,0 -18,8.1 -18,18.1l0,3.6l-4.4,0c-0.6,0 -0.6,0.9 -0.6,1.5l0,39.8c0,0.6 0.1,0.7 0.6,0.7l44.7,0c0.6,0 0.6,-0.1 0.6,-0.7l0,-39.8c0.1,-0.6 0,-1.5 -0.5,-1.5zm-38.4,-3.6c0,-8.9 7.2,-16.1 16,-16.1c8.8,0 16,7.2 16,16.1l0,3.6l-3,0l0,-3.6c0,-7.2 -5.8,-13.1 -13,-13.1s-13,5.9 -13,13.1l0,3.6l-3,0l0,-3.6zm27,3.6l-22,0l0,-3.6c0,-6.1 4.9,-11.1 11,-11.1s11,5 11,11.1l0,3.6zm10,40l-42,0l0,-38l42,0l0,38z"/>
  <path id="svg_4" fill="#00458e" d="m31.2,57.8c0.2,0.2 0.4,0.3 0.7,0.3c0,0 0,0 0,0c0.3,0 0.5,-0.1 0.7,-0.3l12.7,-12.8c3.7,-3.9 3.7,-10.2 -0.2,-14c-1.5,-1.5 -3.5,-2.3 -5.8,-2.3c-2.5,0 -5.2,1 -7.4,2.8c-2.2,-1.8 -4.9,-2.8 -7.4,-2.8c-2.2,0 -4.2,0.8 -5.8,2.3c-3.9,3.9 -3.9,10 -0.1,14l12.6,12.8zm-11,-25.4c1.1,-1.1 2.6,-1.7 4.4,-1.7c2.3,0 4.8,1.1 6.7,2.9c0.4,0.4 1,0.4 1.4,0c1.9,-1.8 4.5,-2.9 6.7,-2.9c1.7,0 3.2,0.6 4.4,1.7c3,3 3.1,8.1 0.1,11.2l-12,12.1l-11.9,-12.1c-3,-3.2 -2.9,-8.1 0.2,-11.2z"/>
  <path id="svg_5" fill="#00458e" d="m28.6,47.6c0,0.3 0.1,0.6 0.2,0.8s0.5,0.3 0.8,0.3l4.7,0c0.3,0 0.6,-0.1 0.8,-0.3s0.3,-0.5 0.2,-0.8l-0.7,-5.3c0.5,-0.7 0.8,-1.6 0.8,-2.4c0,-1.9 -1.6,-3.5 -3.5,-3.5s-3.5,1.6 -3.5,3.5c0,0.9 0.3,1.8 0.8,2.4l-0.6,5.3zm3.3,-9.3c0.8,0 1.5,0.7 1.5,1.5c0,0.5 -0.2,1.1 -0.5,1.3c-0.3,0.2 -0.4,0.6 -0.3,0.9l0.6,4.7l-2.4,0l0.6,-4.7c0,-0.3 -0.1,-0.7 -0.3,-0.9c-0.3,-0.3 -0.5,-0.8 -0.5,-1.3c-0.2,-0.8 0.5,-1.5 1.3,-1.5z"/>
 </g>
</svg>