<svg width="117" height="117" xmlns="http://www.w3.org/2000/svg">
 <title/>
 <desc/>

 <g>
  <title>background</title>
  <rect fill="none" id="canvas_background" height="402" width="582" y="-1" x="-1"/>
 </g>
 <g>
  <title>Layer 1</title>
  <path id="Shape" fill="#4A4A4A" d="m4.5,46.4c-2.3,0 -4.1,1.8 -4.1,4.1l0,16c0,2.3 1.8,4.1 4.1,4.1l7.5,0c1.1,4.3 2.8,8.4 5.1,12.2l-5.2,5.2c-1.6,1.6 -1.6,4.2 0,5.8l11.3,11.3c1.6,1.6 4.2,1.6 5.8,0l5.3,-5.3c3.8,2.2 7.9,3.9 12.2,5l0,7.5c0,2.3 1.8,4.1 4.1,4.1l16,0c2.3,0 4.1,-1.8 4.1,-4.1l0,-7.6c4.3,-1.1 8.3,-2.8 12.1,-5l5.4,5.4c1.6,1.6 4.2,1.6 5.8,0l11.3,-11.3c1.6,-1.6 1.6,-4.2 0,-5.8l-5.4,-5.4c2.2,-3.8 3.9,-7.8 5,-12.1l7.6,0c2.3,0 4.1,-1.8 4.1,-4.1l0,-16c0,-2.3 -1.8,-4.1 -4.1,-4.1l-7.6,0c-1.1,-4.3 -2.8,-8.3 -5,-12.1l5.4,-5.4c1.6,-1.6 1.6,-4.2 0,-5.8l-11.4,-11.2c-1.6,-1.6 -4.2,-1.6 -5.8,0l-5.3,5.3c-3.8,-2.2 -7.9,-3.9 -12.2,-5.1l0,-7.5c0,-2.3 -1.8,-4.1 -4.1,-4.1l-16,0c-2.3,0 -4.1,1.8 -4.1,4.1l0,7.5c-4.3,1.1 -8.4,2.8 -12.2,5l-5.3,-5.3c-1.6,-1.6 -4.2,-1.6 -5.8,0l-11.3,11.4c-1.6,1.6 -1.6,4.2 0,5.8l5.2,5.2c-2.3,3.8 -4,7.9 -5.1,12.3l-7.4,0zm14.8,4.8c1,-5.6 3.2,-10.7 6.3,-15.3c1.1,-1.6 0.9,-3.8 -0.5,-5.2l-4.6,-4.7l5.5,-5.5l4.7,4.7c1.4,1.4 3.6,1.6 5.2,0.5c4.6,-3.2 9.8,-5.3 15.3,-6.3c1.9,-0.4 3.4,-2 3.4,-4l0,-6.7l7.8,0l0,6.7c0,2 1.4,3.7 3.3,4c5.5,1 10.6,3.2 15.2,6.3c1.6,1.1 3.8,0.9 5.2,-0.5l4.8,-4.8l5.5,5.5l-4.8,4.8c-1.4,1.4 -1.6,3.6 -0.5,5.2c3.1,4.6 5.2,9.7 6.3,15.2c0.4,1.9 2.1,3.4 4,3.4l6.8,0l0,7.8l-6.8,0c-2,0 -3.7,1.4 -4,3.3c-1,5.5 -3.1,10.6 -6.3,15.2c-1.1,1.6 -0.9,3.8 0.5,5.2l4.8,4.8l-5.5,5.5l-4.8,-4.8c-1.4,-1.4 -3.6,-1.6 -5.2,-0.5c-4.6,3.2 -9.7,5.3 -15.2,6.3c-1.9,0.4 -3.3,2.1 -3.3,4l0,6.7l-7.8,0l0,-6.7c0,-2 -1.4,-3.7 -3.4,-4c-5.6,-1 -10.7,-3.1 -15.3,-6.3c-1.6,-1.1 -3.8,-0.9 -5.2,0.5l-4.7,4.7l-5.5,-5.2l4.7,-4.7c1.4,-1.4 1.6,-3.6 0.5,-5.2c-3.2,-4.6 -5.3,-9.8 -6.4,-15.3c-0.4,-1.9 -2,-3.3 -4,-3.3l-6.6,0l0,-7.8l6.6,0c1.9,-0.1 3.6,-1.5 4,-3.5z"/>
  <path id="Shape" fill="#00458e" d="m58.4,87.2c15.5,0 28.1,-12.6 28.1,-28.1c0,-15.5 -12.6,-28.1 -28.1,-28.1c-15.5,0 -28.1,12.6 -28.1,28.1c0,15.5 12.6,28.1 28.1,28.1zm0,-48c11,0 19.9,8.9 19.9,19.9c0,11 -8.9,19.9 -19.9,19.9c-11,0 -19.9,-8.9 -19.9,-19.9c0,-11 8.9,-19.9 19.9,-19.9z"/>
 </g>
</svg>